<svg width="40" height="40" viewBox="0 0 40 40" fill="none" xmlns="http://www.w3.org/2000/svg">
<path fill-rule="evenodd" clip-rule="evenodd" d="M18.334 20.5836L21.9069 21.5422C23.5744 21.9896 24.2689 23.3689 23.8038 24.9483C23.4953 26.1011 22.7025 26.9961 21.6434 27.138C21.2436 27.2011 20.7169 27.1024 20.2802 26.9852L16.866 26.0692L18.334 20.5836ZM24.7163 14.5418C25.3245 15.131 25.4691 16.0219 25.2244 16.9361C24.8415 18.3672 23.7418 19.1373 22.3127 18.7539L19.0573 17.8805L20.3444 13.0705L23.2028 13.8374C23.838 14.0078 24.3725 14.2366 24.7163 14.5418ZM19.8638 29.8133C19.3674 31.6684 19.1192 32.596 19.1192 32.596C19.1192 32.596 18.4972 32.4291 17.2533 32.0953L17.9979 29.3127L16.0527 28.7908C15.5562 30.6459 15.308 31.5734 15.308 31.5734C15.308 31.5734 14.6861 31.4066 13.4422 31.0728L14.1868 28.2901C11.6989 27.6226 10.455 27.2889 10.455 27.2889C10.455 27.2889 10.6819 26.4409 11.1358 24.745L12.2871 25.0539C12.8825 25.2136 13.4469 24.8537 13.5958 24.2972L16.6062 13.0476C16.7658 12.4513 16.4064 11.8863 15.8506 11.7372C15.0831 11.5312 14.6993 11.4283 14.6993 11.4283C14.6993 11.4283 14.9262 10.5802 15.3801 8.88412L19.1119 9.88537C19.6083 8.03031 19.8565 7.10277 19.8565 7.10277C19.8565 7.10277 20.4785 7.26964 21.7224 7.60338L20.9778 10.386L22.923 10.9079C23.4194 9.05282 23.6676 8.12529 23.6676 8.12529C23.6676 8.12529 24.2896 8.29217 25.5336 8.62592L24.7783 11.4482C25.7204 11.7436 26.4428 12.0653 27.112 12.5857C28.6092 13.669 29.3457 15.5282 28.7925 17.5953C28.3244 19.3444 27.1474 20.5624 25.4765 20.9235C27.36 22.1532 27.7944 24.1869 27.2732 26.1348C26.5634 28.6284 24.4066 30.0096 22.2514 30.1131C21.3937 30.1386 20.6578 30.0263 19.8638 29.8133ZM1.0528 14.8819C-1.7342 25.2967 4.4559 36.0326 14.8572 38.8232C25.2585 41.6139 35.9802 35.4155 38.7672 25.0007C41.5542 14.5858 35.364 3.85005 24.9628 1.0594C14.5615 -1.73128 3.83979 4.46705 1.0528 14.8819Z" fill="#F28931"/>
</svg>
