<svg width="41" height="39" viewBox="0 0 41 39" fill="none" xmlns="http://www.w3.org/2000/svg">
<ellipse cx="20.3283" cy="19.1153" rx="20.3283" ry="19.1153" fill="white"/>
<path fill-rule="evenodd" clip-rule="evenodd" d="M9.89661 19.1153L20.5957 3.01819V14.7811L9.89661 19.1153ZM30.7598 19.1153L20.5957 14.7868V3.01819L30.7598 19.1153Z" fill="#828384"/>
<path fill-rule="evenodd" clip-rule="evenodd" d="M20.5957 25.1516L9.89661 19.493L20.5957 15.0909V25.1516ZM30.7598 19.4939L20.5957 25.1516V15.0909L30.7598 19.4939Z" fill="#343535"/>
<path fill-rule="evenodd" clip-rule="evenodd" d="M9.89661 21.6305L20.5957 27.4381V35.2124L9.89661 21.6305ZM30.7598 21.6305L20.5957 35.2124V27.4374L30.7598 21.6305Z" fill="#828384"/>
<path fill-rule="evenodd" clip-rule="evenodd" d="M30.7598 19.1153L20.5957 14.7868V3.01819L30.7598 19.1153Z" fill="#2F3030"/>
<path fill-rule="evenodd" clip-rule="evenodd" d="M30.7598 19.4939L20.5957 15.0909V25.1516L30.7598 19.4939Z" fill="#131313"/>
<path fill-rule="evenodd" clip-rule="evenodd" d="M30.7598 21.6305L20.5957 27.4374V35.2124L30.7598 21.6305Z" fill="#2F3030"/>
</svg>
