<svg width="63" height="37" viewBox="0 0 63 37" fill="none" xmlns="http://www.w3.org/2000/svg">
<path d="M62.9999 18.9629L62.9416 36.3582H61.5264L61.5769 20.0314C61.6089 9.7747 53.984 1.44169 44.567 1.44169C39.8698 1.44169 35.6172 3.51707 32.5393 6.86845C32.4839 6.92857 32.4284 6.99011 32.3729 7.05166L32.3622 7.06383L32.3317 7.09818C32.2606 7.17833 32.1894 7.25848 32.1219 7.34007L32.0508 7.42594C32.0351 7.44455 32.0195 7.46244 32.0045 7.48105C31.9697 7.52184 31.9334 7.56263 31.9014 7.60414L31.8452 7.6757C31.7848 7.74727 31.7258 7.82313 31.6667 7.89827L31.6525 7.91616C31.5651 8.0278 31.4783 8.14016 31.393 8.25466C31.3076 8.36917 31.213 8.49727 31.1249 8.62036L31.0992 8.65686L31.0409 8.73987C31.0018 8.7957 30.9627 8.85223 30.9243 8.90877C30.8859 8.9653 30.8468 9.02256 30.8091 9.07909C30.7714 9.13563 30.7323 9.1936 30.6953 9.25156C30.6704 9.28878 30.647 9.32313 30.6242 9.3632C30.2858 9.88957 29.9739 10.4327 29.6898 10.9906C29.6485 11.0722 29.6073 11.1538 29.5674 11.2353C29.5276 11.3169 29.4871 11.3999 29.448 11.483C29.4352 11.5094 29.4231 11.5359 29.411 11.5624C29.3576 11.6755 29.305 11.7893 29.2545 11.9038C29.2382 11.9403 29.2218 11.9753 29.2062 12.0133C29.204 12.0177 29.2021 12.0222 29.2005 12.0268L29.155 12.1321C29.1393 12.1669 29.1244 12.2019 29.1102 12.2373C29.0739 12.3217 29.0391 12.4069 29.0042 12.4927C28.9694 12.5786 28.9331 12.6638 28.9018 12.7504C28.8705 12.837 28.8357 12.9236 28.803 13.0102C28.7766 13.0817 28.7503 13.1497 28.7261 13.2198C28.702 13.29 28.6757 13.363 28.6515 13.4302C28.6173 13.5257 28.5846 13.623 28.5533 13.7222C28.5292 13.7938 28.5071 13.8618 28.4858 13.9312C28.473 13.9698 28.4609 14.0078 28.4495 14.0464C28.4381 14.0851 28.426 14.1223 28.414 14.1609C28.3905 14.2396 28.367 14.3191 28.3428 14.3985C28.3187 14.4779 28.2966 14.5574 28.2753 14.6375C28.2539 14.7177 28.2319 14.795 28.2113 14.8744L28.1579 15.0812C28.1416 15.1485 28.1245 15.2165 28.1089 15.2838C28.0989 15.3238 28.0897 15.3639 28.0804 15.4047C28.0662 15.4655 28.052 15.5264 28.0392 15.5872C27.9828 15.8362 27.9318 16.0872 27.8863 16.3401C27.8863 16.3451 27.8863 16.3501 27.8863 16.3551L27.8479 16.5755C27.8337 16.6578 27.8201 16.7401 27.8073 16.8231C27.6434 17.8646 27.5614 18.9175 27.562 19.972V34.9112C26.6565 33.9216 26.1567 32.6238 26.1632 31.2785L26.2037 19.2134C26.2047 18.896 26.1866 18.5789 26.1497 18.2637C26.2022 16.6399 26.4664 15.03 26.9355 13.4753C27.1663 12.7116 27.4468 11.9641 27.7753 11.2375C27.947 10.8558 28.1314 10.4818 28.3286 10.1154C28.4647 9.8601 28.6069 9.60796 28.7553 9.35891C29.044 8.87609 29.3555 8.40567 29.6898 7.94765L29.7082 7.92189C29.923 7.62895 30.1468 7.34269 30.3796 7.06311C30.4734 6.94932 30.5687 6.83768 30.664 6.72604C30.8873 6.46697 31.1196 6.2134 31.361 5.9653C31.4178 5.90519 31.4762 5.84579 31.5352 5.78639C34.1168 3.18933 37.4065 1.42209 40.9873 0.708698C44.5681 -0.00469181 48.2788 0.367891 51.649 1.77922C55.0191 3.19054 57.897 5.57706 59.9178 8.63624C61.9386 11.6954 63.0113 15.2895 62.9999 18.9629Z" fill="url(#paint0_linear_11_35)"/>
<path d="M61.5769 20.0314L61.5264 36.3604H57.6065L57.6663 18.5185C57.6912 11.2189 51.8192 5.28902 44.5669 5.28902C42.8461 5.28729 41.1419 5.62781 39.5523 6.29101C37.9627 6.95421 36.519 7.92702 35.3042 9.15353C35.2412 9.21698 35.1786 9.28139 35.1165 9.34675C35.0959 9.36751 35.0759 9.38898 35.056 9.41045C34.9934 9.477 34.9316 9.54427 34.8704 9.61154C34.8093 9.67881 34.7481 9.74895 34.6877 9.81837C34.6734 9.83483 34.6592 9.852 34.6443 9.86846C34.5916 9.93072 34.5397 9.99227 34.4871 10.056L34.4594 10.0889C34.4252 10.1297 34.3925 10.1705 34.3598 10.212L34.2617 10.3358C34.229 10.3773 34.197 10.4188 34.165 10.461C34.133 10.5032 34.1017 10.5448 34.0704 10.587C34.0391 10.6292 33.9936 10.69 33.9566 10.7423C33.9196 10.7945 33.8812 10.8468 33.8449 10.8997L33.756 11.0285C33.7269 11.0708 33.6992 11.113 33.6707 11.1552C33.6636 11.1652 33.6572 11.1752 33.6508 11.186C33.6124 11.2432 33.5747 11.3012 33.5377 11.3592L33.5235 11.3813C33.4943 11.4271 33.4659 11.4737 33.4375 11.5202C33.4261 11.5388 33.414 11.5574 33.4026 11.5767L33.3955 11.5889C33.3692 11.6311 33.3436 11.6733 33.3187 11.7163C33.2938 11.7592 33.2782 11.7843 33.259 11.8179L33.2362 11.8573C33.2085 11.9045 33.1814 11.9517 33.1551 12.0004C33.1288 12.049 33.1018 12.0956 33.0762 12.1435C33.0655 12.1628 33.0541 12.1822 33.0435 12.2022L33.0293 12.2294L32.9987 12.2874L32.934 12.4112C32.9048 12.467 32.8764 12.5235 32.8486 12.5793C32.8209 12.6352 32.8003 12.6774 32.7775 12.7268C32.7548 12.7761 32.7348 12.8148 32.7149 12.8584L32.7071 12.8749L32.6595 12.9787L32.6417 13.018C32.5947 13.1197 32.5507 13.222 32.508 13.3243C32.4866 13.3751 32.4653 13.426 32.4447 13.4768C32.4177 13.5426 32.3914 13.6084 32.3658 13.675C32.3117 13.8134 32.2603 13.9524 32.2114 14.0922C32.1678 14.2144 32.1268 14.3377 32.0884 14.4622C32.0841 14.4744 32.0799 14.4873 32.0763 14.5001C32.0514 14.5781 32.0272 14.6569 32.0052 14.7356C31.9896 14.7885 31.9746 14.8422 31.9597 14.8959C31.9483 14.9381 31.9362 14.9796 31.9248 15.0219C31.9184 15.0433 31.9128 15.0655 31.9071 15.087C31.8694 15.2301 31.8359 15.3782 31.8004 15.5257C31.7869 15.5836 31.7741 15.6423 31.7613 15.701L31.7549 15.7318C31.7549 15.7354 31.7549 15.7396 31.7549 15.7439C31.7279 15.8747 31.7025 16.0066 31.6788 16.1397C31.6752 16.1583 31.6717 16.1769 31.6688 16.1962L31.639 16.373C31.639 16.3802 31.639 16.3873 31.6354 16.3952C31.6254 16.4632 31.6148 16.5319 31.6055 16.5999C31.6055 16.6099 31.6055 16.6192 31.6013 16.6292C31.5927 16.6922 31.5842 16.7559 31.5764 16.8188C31.5764 16.826 31.5764 16.8332 31.5764 16.8403C31.5622 16.9562 31.5494 17.0729 31.538 17.1896C31.538 17.2196 31.5323 17.2497 31.5302 17.2797C31.5195 17.3928 31.511 17.5066 31.5038 17.6204C31.5038 17.6268 31.5038 17.6325 31.5038 17.639C31.5038 17.6576 31.5038 17.6762 31.5038 17.6948V17.6984C31.5003 17.747 31.4982 17.7964 31.496 17.8415C31.4925 17.9059 31.4903 17.9703 31.4882 18.0347C31.4882 18.0777 31.4882 18.1213 31.4882 18.165V18.1779C31.4882 18.2179 31.4882 18.258 31.4882 18.2981C31.4882 18.3546 31.4882 18.4119 31.4882 18.4684V36.3582H29.7544C29.4877 36.2667 29.2287 36.1538 28.98 36.0204C28.4467 35.7347 27.9657 35.3596 27.5577 34.9112V19.9663C27.5571 18.9118 27.6391 17.8589 27.803 16.8174C27.8158 16.7344 27.8293 16.6521 27.8436 16.5698L27.882 16.3494C27.882 16.3444 27.882 16.3394 27.882 16.3344C27.9294 16.0815 27.9803 15.8305 28.0349 15.5815C28.0477 15.5207 28.0619 15.4598 28.0761 15.399C28.0854 15.3582 28.0946 15.3181 28.1046 15.2781C28.1202 15.2108 28.1373 15.1428 28.1536 15.0755L28.207 14.8687C28.2276 14.7893 28.2489 14.7105 28.271 14.6318C28.293 14.5531 28.3151 14.4722 28.3385 14.3928C28.362 14.3134 28.3847 14.2339 28.4096 14.1552C28.4217 14.1166 28.4331 14.0786 28.4452 14.0407C28.4573 14.0028 28.4687 13.9641 28.4815 13.9255C28.5035 13.8539 28.5256 13.7859 28.549 13.7165C28.5813 13.6211 28.614 13.5238 28.6472 13.4245C28.6713 13.3544 28.6962 13.2843 28.7218 13.2141L28.7986 13.0044C28.8313 12.9178 28.8641 12.8305 28.8975 12.7447C28.9309 12.6588 28.965 12.5722 28.9999 12.487C29.0347 12.4019 29.071 12.316 29.1059 12.2315C29.1201 12.1962 29.135 12.1612 29.1507 12.1263L29.1962 12.0211C29.1978 12.0165 29.1997 12.0119 29.2019 12.0075C29.2175 11.9703 29.2339 11.936 29.2502 11.898C29.3007 11.7835 29.3533 11.6698 29.4067 11.5567C29.4188 11.5302 29.4308 11.5037 29.4436 11.4772C29.4828 11.3942 29.5226 11.3119 29.5631 11.2296C29.6037 11.1473 29.6442 11.0665 29.6854 10.9849C29.9696 10.427 30.2815 9.88386 30.6199 9.35749C30.6441 9.32028 30.6675 9.28592 30.691 9.24585C30.7287 9.18788 30.7664 9.13063 30.8048 9.07338C30.8432 9.01612 30.8809 8.95959 30.92 8.90305C30.9591 8.84652 30.9975 8.78998 31.0366 8.73416L31.0949 8.65114L31.1205 8.61465C31.2087 8.49155 31.2976 8.36918 31.3886 8.24895C31.4797 8.12872 31.5607 8.02209 31.6482 7.91045L31.6624 7.89256C31.7215 7.82099 31.7805 7.7437 31.8409 7.66999L31.8971 7.59842C31.9312 7.55692 31.9682 7.51612 32.0002 7.47533C32.0152 7.45673 32.0308 7.43883 32.0464 7.42023L32.1176 7.33435C32.1887 7.25277 32.2598 7.17261 32.3274 7.09246L32.3579 7.05811L32.3686 7.04594C32.4241 6.9844 32.4795 6.92285 32.535 6.86274C35.6129 3.50992 39.8655 1.43597 44.5627 1.43597C53.9839 1.43955 61.6089 9.77256 61.5769 20.0314Z" fill="url(#paint1_linear_11_35)"/>
<path d="M57.6663 18.5164L57.6066 36.3582C56.907 36.3582 56.2144 36.2192 55.5684 35.9493C54.9223 35.6793 54.3356 35.2836 53.8419 34.785C53.3482 34.2863 52.9571 33.6945 52.6912 33.0434C52.4252 32.3923 52.2896 31.6948 52.2921 30.9908L52.3327 18.9257C52.3413 16.9155 51.5797 14.9793 50.2064 13.5195C48.8331 12.0597 46.9536 11.1886 44.9586 11.0872C42.9635 10.9859 41.0064 11.6621 39.494 12.9753C37.9815 14.2885 37.0301 16.1377 36.8375 18.1385C36.8133 18.3875 36.8012 18.6395 36.8012 18.8964V30.9908C36.8031 32.334 36.3024 33.6285 35.3988 34.617L35.391 34.6256C35.3419 34.68 35.2907 34.7337 35.2388 34.7859C34.8658 35.1624 34.4388 35.4805 33.9723 35.7299C33.7184 35.8674 33.4533 35.9831 33.18 36.0755C32.7227 36.2312 32.2463 36.323 31.7641 36.3482C31.6681 36.3539 31.5707 36.3568 31.4733 36.3568H31.4676V18.472C31.4676 18.4155 31.4676 18.3582 31.4676 18.3017C31.4676 18.2616 31.4676 18.2215 31.4676 18.1814V18.1707C31.4676 18.1271 31.4676 18.0834 31.4676 18.0405C31.4676 17.9761 31.4719 17.9116 31.4754 17.8472C31.4754 17.7986 31.4797 17.7492 31.4832 17.7041V17.7005C31.4832 17.6819 31.4832 17.6633 31.4832 17.6447C31.4832 17.6383 31.4832 17.6325 31.4832 17.6261C31.4903 17.5123 31.4989 17.3985 31.5095 17.2854C31.5095 17.2554 31.5145 17.2253 31.5174 17.1953C31.5287 17.0786 31.5416 16.962 31.5558 16.846C31.5558 16.8389 31.5558 16.8317 31.5558 16.8246C31.5636 16.7616 31.5721 16.6979 31.5807 16.6349C31.5807 16.6249 31.5807 16.6156 31.5849 16.6056C31.5942 16.5376 31.6048 16.4689 31.6148 16.4009C31.6148 16.393 31.6148 16.3859 31.6184 16.3787L31.6482 16.202C31.6482 16.1826 31.6546 16.164 31.6582 16.1454C31.6816 16.0123 31.7065 15.8806 31.7343 15.7497C31.7343 15.7454 31.7343 15.7411 31.7343 15.7375L31.7407 15.7067C31.7499 15.6609 31.7599 15.6158 31.7705 15.57C31.7705 15.5572 31.7762 15.5443 31.7798 15.5314C31.8125 15.384 31.8509 15.238 31.8865 15.0927C31.8921 15.0712 31.8978 15.049 31.9042 15.0276C31.9156 14.9854 31.9277 14.9438 31.9391 14.9016C31.954 14.8479 31.969 14.7943 31.9846 14.7413C32.0074 14.6626 32.0315 14.5839 32.0557 14.5059C32.0593 14.493 32.0635 14.4801 32.0678 14.4679C32.1062 14.3434 32.1472 14.2201 32.1908 14.0979C32.2382 13.9577 32.2897 13.8186 32.3451 13.6807C32.3707 13.6142 32.3971 13.5483 32.4241 13.4825C32.4447 13.4317 32.466 13.3809 32.4874 13.3301C32.53 13.2277 32.5741 13.1254 32.6211 13.0238L32.6403 12.9823L32.6879 12.8785L32.6957 12.862C32.7157 12.8184 32.737 12.774 32.7583 12.7303C32.7797 12.6867 32.806 12.6316 32.8294 12.5829C32.8529 12.5343 32.8856 12.4706 32.9148 12.4147L32.9795 12.2909L33.0101 12.233L33.0243 12.2058C33.035 12.1857 33.0463 12.1664 33.057 12.1471C33.0826 12.0991 33.1089 12.0512 33.1359 12.004C33.163 11.9567 33.1893 11.9088 33.217 11.8608L33.2398 11.8215C33.259 11.7878 33.2789 11.7535 33.2995 11.7198C33.3201 11.6862 33.35 11.6347 33.3763 11.5925L33.3834 11.5803C33.3948 11.561 33.4069 11.5424 33.4183 11.5238C33.4467 11.4772 33.4759 11.4307 33.505 11.3849L33.5193 11.3627C33.5562 11.3048 33.5904 11.2468 33.6323 11.1895C33.6387 11.1788 33.6451 11.1688 33.6522 11.1588C33.6807 11.1166 33.7084 11.0743 33.7376 11.0321L33.8265 10.9033C33.8627 10.8503 33.8976 10.7981 33.9381 10.7458C33.9787 10.6936 34.0135 10.6421 34.0519 10.5906C34.0903 10.539 34.1145 10.5061 34.1465 10.4646C34.1785 10.4231 34.2105 10.3809 34.2432 10.3394L34.3413 10.2156C34.3741 10.174 34.4075 10.1333 34.4409 10.0925L34.4686 10.0595C34.5213 9.99585 34.5732 9.9343 34.6258 9.87204C34.6407 9.85558 34.655 9.83841 34.6692 9.82195C34.7296 9.75038 34.7908 9.68311 34.8519 9.61512C34.9131 9.54714 34.975 9.48058 35.0376 9.41403C35.0575 9.39256 35.0774 9.37109 35.098 9.35033C35.1601 9.28545 35.2227 9.22104 35.2857 9.15711C36.5024 7.92773 37.949 6.95298 39.542 6.28909C41.1349 5.62519 42.8428 5.2853 44.5669 5.28902C51.8192 5.28902 57.6912 11.2189 57.6663 18.5164Z" fill="url(#paint2_linear_11_35)"/>
<path d="M36.8375 18.1399C36.8133 18.389 36.8012 18.6409 36.8012 18.8978V30.9908C36.8031 32.3339 36.3024 33.6285 35.3988 34.617L35.4429 20.3176C35.4481 19.242 35.3675 18.1677 35.2018 17.1051C34.9805 15.6919 34.6058 14.3075 34.0846 12.9765C33.8869 12.4794 33.6712 11.9923 33.4375 11.5152C33.3977 11.4329 33.3564 11.3506 33.3152 11.269C33.031 10.7111 32.7191 10.168 32.3807 9.64158C32.2947 9.50776 32.2072 9.37465 32.1169 9.24368C31.886 8.90256 31.6442 8.57026 31.3915 8.24678C31.3047 8.13657 31.2173 8.02636 31.1284 7.9183C30.8861 7.62298 30.6356 7.33672 30.3767 7.05952C27.3081 3.76181 23.0881 1.72579 18.433 1.72579C13.7394 1.72579 9.48316 3.80117 6.40531 7.15256C3.32746 10.5039 1.4223 15.1371 1.4223 20.2525V36.6445H1.95438e-07V19.1869C-0.000528763 15.5306 1.07268 11.9557 3.08481 8.91135C5.09694 5.86697 7.95823 3.48887 11.3092 2.07584C14.6602 0.662807 18.3514 0.277859 21.9191 0.969358C25.4868 1.66086 28.7719 3.39796 31.3616 5.96243L31.4918 6.09196C31.6966 6.29903 31.8952 6.50943 32.0877 6.72317C32.1851 6.83123 32.2819 6.93786 32.3757 7.0495C32.6194 7.33099 32.8529 7.61725 33.0762 7.90828C33.1582 8.01467 33.2386 8.12202 33.3173 8.23032C33.6515 8.68738 33.963 9.15781 34.2517 9.64158C34.3328 9.7766 34.4122 9.91305 34.49 10.0509C34.6986 10.4207 34.8941 10.7974 35.0767 11.1809C35.4726 12.0132 35.8055 12.8745 36.0723 13.7573C36.5011 15.182 36.758 16.6534 36.8375 18.1399Z" fill="url(#paint3_linear_11_35)"/>
<path d="M35.4429 20.3176L35.3988 34.6192L35.391 34.6278C35.3419 34.6822 35.2907 34.7358 35.2388 34.7881C34.8658 35.1645 34.4389 35.4827 33.9723 35.732C33.7184 35.8696 33.4534 35.9852 33.18 36.0777C32.7226 36.2327 32.2462 36.3237 31.7642 36.3482C31.6681 36.3539 31.5707 36.3568 31.4733 36.3568L31.5323 18.8012C31.5323 18.7296 31.5323 18.6581 31.5323 18.5865C31.5323 18.5636 31.5323 18.54 31.5323 18.5149C31.5323 18.4734 31.5323 18.4319 31.5323 18.3897C31.5323 18.3475 31.5323 18.2938 31.5273 18.2466C31.5224 18.1993 31.5231 18.1342 31.5202 18.0784C31.5145 17.966 31.5074 17.8544 31.4989 17.7427C31.4989 17.7277 31.4989 17.7127 31.4953 17.6984V17.6948C31.4953 17.6669 31.4911 17.639 31.4882 17.6111C31.474 17.4412 31.4565 17.2726 31.4356 17.1051C31.4278 17.0443 31.42 16.9834 31.4114 16.9233C31.4 16.8382 31.3872 16.7537 31.3737 16.6693C31.3659 16.617 31.3574 16.5641 31.3481 16.5118C31.3481 16.5118 31.3481 16.5075 31.3481 16.5054C31.3439 16.4782 31.3389 16.451 31.3339 16.4238C31.3232 16.3615 31.3119 16.2993 31.2998 16.2377C31.2877 16.1762 31.2756 16.1161 31.2635 16.0552C31.2336 15.9121 31.2021 15.7711 31.1689 15.6323L31.1262 15.4634C31.0841 15.2988 31.039 15.1359 30.9911 14.9746C30.9712 14.903 30.9499 14.8372 30.9278 14.7685C30.8852 14.6321 30.8399 14.4963 30.792 14.3613C30.7683 14.294 30.7446 14.2268 30.7209 14.1595C30.6981 14.0972 30.674 14.0343 30.6498 13.972C30.6256 13.9097 30.5943 13.8289 30.5659 13.7616C30.5374 13.6943 30.504 13.612 30.472 13.5376C30.4464 13.4782 30.4208 13.4188 30.3938 13.3601C30.3916 13.354 30.389 13.348 30.3859 13.3422C30.3781 13.3236 30.3696 13.305 30.3611 13.2871C30.3184 13.1926 30.275 13.0989 30.2295 13.0059C30.2287 13.0033 30.2275 13.0009 30.2259 12.9987C30.2067 12.9586 30.1875 12.9186 30.1676 12.8792C30.1321 12.8076 30.0965 12.7361 30.0581 12.6645C30.0197 12.5929 29.9834 12.5214 29.945 12.4498C29.9066 12.3782 29.8739 12.3224 29.8398 12.2587C29.7914 12.1728 29.7416 12.087 29.6912 12.0025C29.6613 11.9524 29.6314 11.9023 29.6001 11.853C29.5394 11.7537 29.4776 11.655 29.4145 11.5567C29.3434 11.4486 29.2723 11.342 29.2012 11.2368C29.1154 11.1127 29.0277 10.9908 28.938 10.8711C28.9188 10.8446 28.8989 10.8181 28.879 10.7924C28.842 10.7446 28.8044 10.6953 28.7659 10.6442C28.7169 10.5812 28.6678 10.5183 28.6173 10.4567C28.5668 10.3952 28.5185 10.3358 28.4687 10.2757C28.4189 10.2155 28.3777 10.1676 28.3314 10.1146C28.2888 10.0653 28.2461 10.0166 28.2027 9.96793L28.138 9.89637C28.0278 9.77399 27.9147 9.65376 27.8002 9.53854C27.7547 9.49203 27.7092 9.44551 27.663 9.39971L27.6551 9.39184C27.6004 9.33745 27.5449 9.28306 27.4887 9.22938C27.4325 9.17571 27.3813 9.12705 27.3266 9.07623C27.1753 8.9331 27.021 8.79618 26.8636 8.66545C26.8124 8.62251 26.7605 8.57886 26.7086 8.53663C26.6268 8.46936 26.5443 8.40281 26.4611 8.3384C26.4092 8.29761 26.3566 8.25753 26.304 8.21817C26.2229 8.15663 26.1418 8.09651 26.06 8.03783C26.0145 8.00491 25.969 7.97199 25.9228 7.9405C25.9198 7.9374 25.9161 7.93496 25.9121 7.93334C25.8673 7.90042 25.8218 7.86965 25.7763 7.83888C25.6789 7.77232 25.58 7.7072 25.4812 7.64351C25.4442 7.61917 25.4065 7.59556 25.3688 7.57194C25.2742 7.51254 25.1796 7.45457 25.0843 7.39804C25.0459 7.37514 25.0075 7.35224 24.9684 7.32647L24.8262 7.24417C24.7807 7.21841 24.7344 7.19265 24.6875 7.1676C24.6512 7.14684 24.6164 7.12752 24.578 7.1082C24.5211 7.07719 24.4642 7.04713 24.4073 7.01803C24.3433 6.98511 24.2786 6.9529 24.2139 6.92141L24.1079 6.87418C24.0539 6.8477 23.9991 6.82122 23.9444 6.79618C23.8733 6.76183 23.7986 6.72461 23.7253 6.69599C23.6521 6.66736 23.5966 6.63945 23.5326 6.61225L23.4124 6.56144L23.31 6.51994L23.2389 6.49059C23.1597 6.45911 23.0801 6.42833 23 6.39828L22.8805 6.35462C22.7994 6.32528 22.7183 6.29665 22.6366 6.26874C22.6003 6.25586 22.5654 6.2437 22.527 6.23224C22.4744 6.21435 22.4218 6.19718 22.3685 6.18072C22.3151 6.16426 22.2412 6.14064 22.1779 6.12204C21.929 6.04761 21.6775 5.98058 21.4233 5.92094C21.3593 5.90591 21.2953 5.89088 21.2313 5.87728H21.2164L21.1403 5.86082C21.0827 5.84866 21.0251 5.83649 20.9675 5.82576L20.88 5.80858L20.7065 5.77709H20.6866C20.6276 5.76636 20.5685 5.75634 20.5095 5.74775C20.4832 5.74274 20.4569 5.73916 20.4306 5.73487C20.3666 5.72485 20.3026 5.71555 20.2379 5.70696L20.1575 5.69622L19.9321 5.6676L19.7422 5.64756C19.6441 5.63826 19.5452 5.62895 19.4456 5.6218C19.366 5.61536 19.2871 5.61035 19.2074 5.60534H19.1477L19.0218 5.59961C18.8284 5.59007 18.6335 5.58554 18.4372 5.58601C14.9641 5.58487 11.6326 6.97184 9.17535 9.44195C6.71811 11.9121 5.33626 15.2631 5.33362 18.7582V36.6445H1.4223V20.2561C1.4223 15.1406 3.32605 10.509 6.40461 7.15973C9.48317 3.81049 13.7358 1.7258 18.433 1.7258C23.0881 1.7258 27.3053 3.76182 30.376 7.06025C30.6339 7.33792 30.8845 7.62418 31.1277 7.91903C31.2166 8.02709 31.304 8.13372 31.3908 8.24751C31.643 8.57003 31.8848 8.90233 32.1162 9.24441C32.2065 9.37538 32.294 9.50849 32.38 9.64231C32.7184 10.1687 33.0303 10.7118 33.3145 11.2697C33.3557 11.3513 33.3969 11.4336 33.4368 11.5159C33.67 11.9901 33.8846 12.476 34.0804 12.9737C34.6032 14.3051 34.9793 15.6903 35.2018 17.1044C35.3676 18.1672 35.4482 19.2418 35.4429 20.3176Z" fill="url(#paint4_linear_11_35)"/>
<path d="M31.5323 18.8026L31.4733 36.3582H29.7544C29.4877 36.2667 29.2287 36.1537 28.98 36.0204C28.1258 35.5628 27.4117 34.8794 26.9145 34.044C26.4173 33.2085 26.1558 32.2524 26.1582 31.2785L26.1987 19.2134C26.1997 18.896 26.1816 18.5789 26.1447 18.2637C25.9114 16.2845 24.9355 14.4698 23.4166 13.1908C21.8977 11.9117 19.9506 11.265 17.9735 11.3829C15.9964 11.5009 14.1388 12.3745 12.7807 13.8252C11.4226 15.2758 10.6665 17.1938 10.6672 19.1869V31.2771C10.6672 32.7006 10.1053 34.0658 9.10505 35.0724C8.1048 36.079 6.74818 36.6445 5.33362 36.6445V18.7582C5.33352 17.0271 5.67228 15.3128 6.33054 13.7134C6.9888 12.114 7.95368 10.6607 9.17008 9.43652C10.3865 8.21236 11.8306 7.2413 13.4199 6.57878C15.0092 5.91627 16.7127 5.57528 18.433 5.57528C18.6292 5.57528 18.8241 5.57981 19.0175 5.58887L19.1434 5.5946H19.2031C19.2828 5.59961 19.3617 5.60462 19.4414 5.61106C19.5409 5.61821 19.6398 5.62752 19.7379 5.63682L19.9278 5.65686L20.1532 5.68549L20.2336 5.69622C20.2983 5.70481 20.3623 5.71411 20.4263 5.72413C20.4526 5.72842 20.4789 5.732 20.5053 5.73701C20.5643 5.7456 20.6233 5.75562 20.6823 5.76635H20.7022L20.8758 5.79784L20.9632 5.81502C21.0208 5.82575 21.0784 5.83792 21.136 5.85008L21.2121 5.86654H21.2271C21.2911 5.88014 21.3551 5.89517 21.4191 5.9102C21.6737 5.96984 21.9252 6.03687 22.1736 6.1113C22.2369 6.1299 22.3009 6.14994 22.3642 6.16998C22.4275 6.19002 22.4702 6.20362 22.5228 6.22151C22.5598 6.23296 22.5939 6.24512 22.6323 6.258C22.7141 6.28591 22.7951 6.31454 22.8762 6.34388L22.9957 6.38754C23.0758 6.41759 23.1555 6.44837 23.2346 6.47986L23.3058 6.5092L23.4082 6.5507L23.5283 6.60152C23.5923 6.62871 23.6571 6.65662 23.7211 6.68525C23.7851 6.71387 23.8676 6.75109 23.9401 6.78544C23.9949 6.81049 24.0496 6.83696 24.1037 6.86344L24.1997 6.91068C24.2644 6.94217 24.3291 6.97437 24.3931 7.00729C24.4571 7.04021 24.5069 7.06669 24.5638 7.09746C24.6 7.11678 24.6349 7.13611 24.6733 7.15686C24.7202 7.18191 24.7665 7.20767 24.812 7.23343L24.9542 7.31573C24.9933 7.33792 25.0317 7.36082 25.0701 7.3873C25.1661 7.44383 25.2607 7.5018 25.3546 7.5612C25.3923 7.58482 25.43 7.60843 25.4669 7.63277C25.5658 7.69646 25.6646 7.76158 25.7621 7.82814C25.8076 7.85891 25.8531 7.88968 25.8979 7.9226C25.9019 7.92422 25.9055 7.92666 25.9086 7.92976C25.9548 7.96125 26.0003 7.99417 26.0458 8.02709C26.1276 8.08577 26.2087 8.14589 26.2897 8.20743C26.3424 8.24679 26.395 8.28687 26.4469 8.32766C26.5301 8.39207 26.6126 8.45863 26.6944 8.5259C26.7463 8.56812 26.7982 8.61177 26.8494 8.65471C27.0068 8.78782 27.1611 8.92475 27.3124 9.0655C27.3671 9.11631 27.4212 9.16712 27.4745 9.21864C27.5278 9.27017 27.5862 9.32671 27.6409 9.3811L27.6487 9.38897C27.695 9.43477 27.7405 9.48129 27.786 9.5278C27.9005 9.64589 28.0136 9.76612 28.1238 9.88563L28.1885 9.95719C28.2319 10.0059 28.2745 10.0545 28.3172 10.1039C28.3407 10.1304 28.3634 10.1576 28.3883 10.1841L28.4495 10.2556C28.5021 10.3176 28.554 10.3806 28.6052 10.4446C28.6557 10.5061 28.7048 10.5691 28.7539 10.6321C28.7923 10.6798 28.83 10.7291 28.8669 10.7802C28.8868 10.806 28.9068 10.8324 28.926 10.8589C29.0156 10.9791 29.1033 11.101 29.1891 11.2246C29.2602 11.3298 29.3313 11.4393 29.4024 11.5445C29.4735 11.6497 29.5276 11.7413 29.588 11.8408C29.6193 11.8902 29.6492 11.9403 29.6791 11.9904C29.7296 12.0748 29.7793 12.1607 29.8277 12.2466C29.8633 12.3102 29.8988 12.3732 29.9329 12.4376C29.9671 12.502 30.009 12.5808 30.046 12.6523C30.083 12.7239 30.1171 12.7955 30.1555 12.867C30.1754 12.9064 30.1946 12.9465 30.2138 12.9865C30.2155 12.9887 30.2167 12.9911 30.2174 12.9937C30.2629 13.0867 30.3063 13.1805 30.349 13.2749C30.3575 13.2928 30.366 13.3114 30.3739 13.33C30.3769 13.3358 30.3795 13.3418 30.3817 13.3479C30.4087 13.4066 30.4343 13.466 30.4599 13.5254C30.4919 13.597 30.5232 13.6743 30.5538 13.7494C30.5844 13.8246 30.61 13.8925 30.6377 13.9598C30.6654 14.0271 30.6853 14.0851 30.7088 14.1473C30.7323 14.2096 30.7579 14.2819 30.7799 14.3491C30.8273 14.4837 30.8726 14.6194 30.9158 14.7563C30.9378 14.8279 30.9584 14.8937 30.979 14.9624C31.0265 15.1237 31.0715 15.2866 31.1142 15.4512L31.1568 15.6201C31.1905 15.7594 31.222 15.9004 31.2514 16.0431C31.2635 16.1039 31.2763 16.1647 31.2877 16.2256C31.2991 16.2864 31.3111 16.3494 31.3218 16.4116C31.3268 16.4388 31.3318 16.466 31.336 16.4932C31.336 16.4932 31.336 16.4975 31.336 16.4997C31.3453 16.5519 31.3538 16.6049 31.3616 16.6571C31.3752 16.7415 31.388 16.826 31.3993 16.9112C31.4079 16.9713 31.4157 17.0321 31.4235 17.0929C31.4439 17.2604 31.4614 17.429 31.4761 17.5989C31.4761 17.6268 31.4811 17.6547 31.4832 17.6826V17.6862C31.4832 17.7005 31.4832 17.7155 31.4868 17.7306C31.4953 17.8422 31.5024 17.9539 31.5081 18.0662C31.5081 18.122 31.5138 18.1786 31.5152 18.2344C31.5167 18.2902 31.5188 18.3303 31.5202 18.3775C31.5217 18.4248 31.5202 18.4613 31.5202 18.5028C31.5202 18.5264 31.5202 18.55 31.5202 18.5743C31.5323 18.6581 31.5323 18.7303 31.5323 18.8026Z" fill="url(#paint5_linear_11_35)"/>
<defs>
<linearGradient id="paint0_linear_11_35" x1="26.1447" y1="18.3546" x2="62.9999" y2="18.3546" gradientUnits="userSpaceOnUse">
<stop offset="0.21" stop-color="#FCEE21"/>
<stop offset="0.55" stop-color="#29ABE2"/>
<stop offset="0.68" stop-color="#29ABE2"/>
<stop offset="0.93" stop-color="#00FFFF"/>
<stop offset="1" stop-color="#0000FF" stop-opacity="0.38"/>
</linearGradient>
<linearGradient id="paint1_linear_11_35" x1="27.557" y1="18.8985" x2="61.5769" y2="18.8985" gradientUnits="userSpaceOnUse">
<stop stop-color="#FFFF00"/>
<stop offset="0.32" stop-color="#0000FF" stop-opacity="0.38"/>
<stop offset="0.55" stop-color="#29ABE2"/>
<stop offset="0.68" stop-color="#29ABE2"/>
<stop offset="0.93" stop-color="#00FFFF"/>
</linearGradient>
<linearGradient id="paint2_linear_11_35" x1="31.4676" y1="20.8236" x2="73.0641" y2="20.8236" gradientUnits="userSpaceOnUse">
<stop offset="0.03" stop-color="#29ABE2"/>
<stop offset="0.21" stop-color="#FCEE21"/>
<stop offset="0.54" stop-color="#29ABE2"/>
<stop offset="0.72" stop-color="#0000FF"/>
<stop offset="1" stop-color="#0000FF"/>
</linearGradient>
<linearGradient id="paint3_linear_11_35" x1="1.95438e-07" y1="18.6409" x2="36.8375" y2="18.6409" gradientUnits="userSpaceOnUse">
<stop offset="0.21" stop-color="#FCEE21"/>
<stop offset="0.55" stop-color="#761F8B"/>
<stop offset="0.68" stop-color="#29ABE2"/>
<stop offset="0.93" stop-color="#00FFFF"/>
<stop offset="1" stop-color="#0000FF" stop-opacity="0.38"/>
</linearGradient>
<linearGradient id="paint4_linear_11_35" x1="1.42301" y1="19.1848" x2="35.4429" y2="19.1848" gradientUnits="userSpaceOnUse">
<stop stop-color="#FFFF00"/>
<stop offset="0.32" stop-color="#0000FF" stop-opacity="0.38"/>
<stop offset="0.55" stop-color="#29ABE2"/>
<stop offset="0.68" stop-color="#29ABE2"/>
<stop offset="0.93" stop-color="#00FFFF"/>
</linearGradient>
<linearGradient id="paint5_linear_11_35" x1="5.33362" y1="21.1099" x2="46.9301" y2="21.1099" gradientUnits="userSpaceOnUse">
<stop offset="0.03" stop-color="#FAFF00"/>
<stop offset="0.21" stop-color="#FCEE21"/>
<stop offset="0.54" stop-color="#29ABE2"/>
<stop offset="0.72" stop-color="#0000FF"/>
<stop offset="1" stop-color="#0000FF"/>
</linearGradient>
</defs>
</svg>
