<svg width="45" height="43" viewBox="0 0 45 43" fill="none" xmlns="http://www.w3.org/2000/svg">
<g opacity="0.8" clip-path="url(#clip0_6_80)">
<path d="M42.7992 3.58022C43.0709 3.53215 43.35 3.58667 43.5869 3.73408C43.7982 3.82792 43.9786 3.98455 44.1058 4.18463C44.2331 4.38471 44.3017 4.61947 44.3031 4.85994L44.5072 34.4435C44.5189 34.6677 44.4721 34.891 44.3718 35.0894C44.2715 35.2878 44.1214 35.4537 43.9378 35.5694L32.4115 42.7561C32.2047 42.9173 31.9531 43.003 31.6953 43C31.6322 43.0057 31.5687 43.0057 31.5055 43L1.61362 39.4986C1.31465 39.4824 1.03288 39.3471 0.825898 39.1204C0.618918 38.8937 0.502349 38.5927 0.500012 38.2789V8.17369C0.495738 7.92813 0.561649 7.68685 0.689269 7.48086C0.81689 7.27488 1.00039 7.11362 1.21616 7.01782L16.2158 0.101339C16.4103 0.00696927 16.6262 -0.0281441 16.8389 1.25095e-05L42.7992 3.56896V3.58022ZM29.4574 4.2182L20.6237 9.47217L31.502 10.9283L39.5586 5.60675L29.4574 4.2182ZM19.0733 11.7239L18.6722 24.2508L14.1891 21.0497L9.70965 23.7067L10.6156 10.6055L2.84539 9.56599V37.1719L30.5352 40.3993V13.27L19.0768 11.7351L19.0733 11.7239ZM12.0192 8.31255L20.5951 3.00228L16.8639 2.48439L5.95704 7.50569L12.0264 8.32005L12.0192 8.31255ZM32.8841 12.9135V39.6037L42.1582 33.8093L41.972 6.90899L32.8841 12.9135Z" fill="#FFFCFC" fill-opacity="0.8"/>
</g>
<defs>
<clipPath id="clip0_6_80">
<rect width="44" height="43" fill="white" transform="translate(0.5)"/>
</clipPath>
</defs>
</svg>
